# xmcd
#
# Track frame offsets: 
#        150
#        22040
#        45490
#        67392
#        89537
#        109260
#        130607
#        149712
#
# Disc length: 2294 seconds
#
# Revision: 1
# Processed by: cddbd v1.5.2PL0 Copyright (c) Steve Scherf et al.
# Submitted via: ExactAudioCopy v0.99pb5
#
DISCID=7908f408
DTITLE=La Fé - La Fé
DYEAR=1997
DGENRE=Salsa
TTITLE0=La Fe Tiene Calentura
TTITLE1=Solo Importas Tu
TTITLE2=El Amor No Se Improvisa
TTITLE3=Por Haberte Burlado
TTITLE4=Sandra
TTITLE5=Mujer Fantasma
TTITLE6=El Eco De Un Tambor
TTITLE7=Mi Anhelo
EXTD=YEAR: 1997
EXTT0=
EXTT1=
EXTT2=
EXTT3=
EXTT4=
EXTT5=
EXTT6=
EXTT7=
PLAYORDER=
